<?xml version="1.0" encoding="utf-8"?>
<!-- Generator: Adobe Illustrator 18.0.0, SVG Export Plug-In . SVG Version: 6.00 Build 0)  -->
<!DOCTYPE svg PUBLIC "-//W3C//DTD SVG 1.1//EN" "http://www.w3.org/Graphics/SVG/1.1/DTD/svg11.dtd">
<svg version="1.1" id="Layer_1" xmlns="http://www.w3.org/2000/svg" xmlns:xlink="http://www.w3.org/1999/xlink" x="0px" y="0px"
	 viewBox="0 0 600 700" enable-background="new 0 0 600 700" xml:space="preserve">
<g id="Layer_2">
	<g>
		<path fill="#333F4F" d="M300,16c-46.5,0-86,26.7-100.9,64h-81.9v74.5h86.3c4.8,9,11.2,17.3,18.7,24.5c-62,30.4-105,99.9-105,203.7
			c0,161.6,34.3,228.7,108.3,250.7v-29.7c0-14,5.7-25.4,12.8-25.4s12.8,11.4,12.8,25.4V682c0,7.7,8.5,14,18.9,14H330
			c10.5,0,18.9-6.3,18.9-14V603c0-13.6,5.7-24.6,12.8-24.6s12.8,11,12.8,24.6v32.8c93.5-20.6,108.3-92,108.3-253
			c0-103.9-42.9-173.3-105-203.7c7.6-7.2,13.9-15.5,18.7-24.5h86.3V80h-81.9C386,42.7,346.5,16,300,16z M300,63.7
			c27,0,48.9,21.9,48.9,48.9S327,161.5,300,161.5s-48.9-21.9-48.9-48.9S273,63.7,300,63.7z M397.8,434c0,23.5,0,62.1,0,62.1
			l-48.9-0.4v-25.6c0-7.7-8.5-14-18.9-14H270c-10.5,0-18.9,6.3-18.9,14V495l-51.2-0.4c0,0,0-33.2,0-60.5c0-54.7,44.3-99,99-99
			C353.5,335,397.8,379.4,397.8,434z"/>
		<rect x="18.2" y="98.7" fill="#333F4F" width="76.8" height="36.1"/>
		<rect x="504.9" y="98.7" fill="#333F4F" width="76.8" height="36.1"/>
	</g>
</g>
</svg>
