<?xml version="1.0" encoding="utf-8"?>
<!-- Generator: Adobe Illustrator 18.0.0, SVG Export Plug-In . SVG Version: 6.00 Build 0)  -->
<!DOCTYPE svg PUBLIC "-//W3C//DTD SVG 1.1//EN" "http://www.w3.org/Graphics/SVG/1.1/DTD/svg11.dtd">
<svg version="1.1" id="Layer_1" xmlns="http://www.w3.org/2000/svg" xmlns:xlink="http://www.w3.org/1999/xlink" x="0px" y="0px"
	 viewBox="152 0 494 600" enable-background="new 152 0 494 600" xml:space="preserve">
<g id="Layer_2">
	<g>
		<path fill="#333F4F" d="M400,13.7c-39.9,0-73.7,22.9-86.5,54.9h-70.2v63.9h74c4.1,7.7,9.6,14.8,16,21c-53.1,26.1-90,85.6-90,174.6
			c0,138.5,29.4,196,92.8,214.9v-25.5c0-12,4.9-21.8,11-21.8s11,9.8,11,21.8v67.1c0,6.6,7.3,12,16.2,12h51.4c9,0,16.2-5.4,16.2-12
			v-67.7c0-11.7,4.9-21.1,11-21.1s11,9.4,11,21.1V545c80.1-17.7,92.8-78.9,92.8-216.9c0-89.1-36.8-148.5-90-174.6
			c6.5-6.2,11.9-13.3,16-21h74V68.6h-70.2C473.7,36.6,439.9,13.7,400,13.7z M400,54.6c23.1,0,41.9,18.8,41.9,41.9
			s-18.8,41.9-41.9,41.9s-41.9-18.8-41.9-41.9S376.9,54.6,400,54.6z M483.8,372c0,20.1,0,53.2,0,53.2l-41.9-0.3v-21.9
			c0-6.6-7.3-12-16.2-12h-51.4c-9,0-16.2,5.4-16.2,12v21.3l-43.9-0.3c0,0,0-28.5,0-51.9c0-46.9,38-84.9,84.9-84.9
			C445.9,287.1,483.8,325.2,483.8,372z"/>
		<rect x="158.5" y="84.6" fill="#333F4F" width="65.8" height="30.9"/>
		<rect x="575.6" y="84.6" fill="#333F4F" width="65.8" height="30.9"/>
	</g>
</g>
</svg>
