<?xml version="1.0" encoding="utf-8"?>
<!-- Generator: Adobe Illustrator 18.0.0, SVG Export Plug-In . SVG Version: 6.00 Build 0)  -->
<!DOCTYPE svg PUBLIC "-//W3C//DTD SVG 1.1//EN" "http://www.w3.org/Graphics/SVG/1.1/DTD/svg11.dtd">
<svg version="1.1" id="Layer_1" xmlns="http://www.w3.org/2000/svg" xmlns:xlink="http://www.w3.org/1999/xlink" x="0px" y="0px"
	 viewBox="0 214 600 486" enable-background="new 0 214 600 486" xml:space="preserve">
<g id="Layer_2">
	<g>
		<path fill="none" d="M293.9,317.6c1.3-0.3,2.7,0.5,3,1.8c0.3,1.3-0.5,2.7-1.8,3L147.9,359h39.6c0.4-4.7,4.3-8.4,9.1-8.4h213.8
			c4.8,0,8.7,3.7,9.1,8.4h46l-141.6-36.6c-1.3-0.3-2.1-1.7-1.8-3s1.7-2.1,3-1.8l149.4,38.6V250h-331v104.9L293.9,317.6z"/>
		<path fill="#333F4F" d="M59.5,488H108v42h400v-42h48.5v42h19v-64.5L508,434l-3.2-39.3l35.7-35.7h25v-61h-42v52.4l-19,13.3V247
			c0-14.9-12.1-27-27-27h-337c-14.9,0-27,12.1-27,27v118.9l-22-15.4V298h-42v61h25l37.3,37.3L108,434l-68.5,31.5V530h20V488z
			 M173.5,478c-17.1,0-31-13.9-31-31s13.9-31,31-31s31,13.9,31,31S190.6,478,173.5,478z M260.5,498.2c0,4.3-3.6,7.8-8,7.8
			s-8-3.5-8-7.8v-65.4c0-4.3,3.6-7.8,8-7.8s8,3.5,8,7.8V498.2z M316.5,498.2c0,4.3-3.6,7.8-8,7.8s-8-3.5-8-7.8v-65.4
			c0-4.3,3.6-7.8,8-7.8s8,3.5,8,7.8V498.2z M370.5,498.2c0,4.3-3.6,7.8-8,7.8s-8-3.5-8-7.8v-65.4c0-4.3,3.6-7.8,8-7.8s8,3.5,8,7.8
			V498.2z M444.5,478c-17.1,0-31-13.9-31-31s13.9-31,31-31s31,13.9,31,31S461.6,478,444.5,478z M474.5,250v106.2l-149.4-38.6
			c-1.3-0.3-2.7,0.5-3,1.8s0.5,2.7,1.8,3L465.5,359h-46c-0.4-4.7-4.3-8.4-9.1-8.4H196.6c-4.8,0-8.7,3.7-9.1,8.4h-39.6l147.2-36.6
			c1.3-0.3,2.2-1.7,1.8-3c-0.3-1.3-1.7-2.2-3-1.8l-150.4,37.4V250H474.5z"/>
		<path fill="#FDFEFF" d="M300.5,498.2c0,4.3,3.6,7.8,8,7.8s8-3.5,8-7.8v-65.4c0-4.3-3.6-7.8-8-7.8s-8,3.5-8,7.8"/>
		<path fill="#333F4F" d="M592.5,572h-569v44h36.7c-0.5,1.3-0.7,2.6-0.7,4v68c0,6.6,5.6,12,12.5,12h72c6.9,0,12.5-5.4,12.5-12v-57
			h-19.4c-4.2,0-7.6-3.4-7.6-7.5s3.4-7.5,7.6-7.5h345.7c4.2,0,7.6,3.4,7.6,7.5s-3.4,7.5-7.6,7.5h-23.4v57c0,6.6,5.6,12,12.5,12h72
			c6.9,0,12.5-5.4,12.5-12v-68c0-1.4-0.3-2.7-0.7-4h36.7V572z"/>
	</g>
	<line fill="none" stroke="#FFFFFF" stroke-width="0.25" stroke-miterlimit="10" x1="143.5" y1="10" x2="474.5" y2="10"/>
</g>
</svg>
