<?xml version="1.0" encoding="utf-8"?>
<!-- Generator: Adobe Illustrator 18.0.0, SVG Export Plug-In . SVG Version: 6.00 Build 0)  -->
<!DOCTYPE svg PUBLIC "-//W3C//DTD SVG 1.1//EN" "http://www.w3.org/Graphics/SVG/1.1/DTD/svg11.dtd">
<svg version="1.1" id="Layer_1" xmlns="http://www.w3.org/2000/svg" xmlns:xlink="http://www.w3.org/1999/xlink" x="0px" y="0px"
	 viewBox="45.5 0 722.8 930.8" enable-background="new 45.5 0 722.8 930.8" xml:space="preserve">
<g id="Layer_2">
	<g>
		<path fill="none" d="M392.5,341.9c1.6-0.4,3.3,0.6,3.7,2.2c0.4,1.6-0.6,3.3-2.2,3.7L212.2,393h48.9c0.5-5.8,5.3-10.4,11.2-10.4
			h264c5.9,0,10.7,4.6,11.2,10.4h56.8l-174.8-45.2c-1.6-0.4-2.6-2.1-2.2-3.7s2.1-2.6,3.7-2.2l184.4,47.7V258.4H206.8V388
			L392.5,341.9z"/>
		<path fill="#333F4F" d="M103.1,552.3H163v51.9h493.8v-51.9h59.9v51.9h23.5v-79.6l-83.3-38.9l-4-48.5l44.1-44.1h30.9v-75.3h-51.9
			v64.7l-23.5,16.4V254.7c0-18.4-14.9-33.3-33.3-33.3h-416c-18.4,0-33.3,14.9-33.3,33.3v146.8l-27.2-19v-64.8H90.7V393h30.9l46,46
			l-4.7,46.5l-84.6,38.9v79.6h24.7V552.3z M243.8,539.9c-21.1,0-38.3-17.2-38.3-38.3c0-21.1,17.2-38.3,38.3-38.3
			s38.3,17.2,38.3,38.3C282.1,522.8,264.9,539.9,243.8,539.9z M351.2,564.9c0,5.3-4.4,9.6-9.9,9.6s-9.9-4.3-9.9-9.6v-80.7
			c0-5.3,4.4-9.6,9.9-9.6s9.9,4.3,9.9,9.6V564.9z M420.4,564.9c0,5.3-4.4,9.6-9.9,9.6s-9.9-4.3-9.9-9.6v-80.7c0-5.3,4.4-9.6,9.9-9.6
			s9.9,4.3,9.9,9.6V564.9z M487,564.9c0,5.3-4.4,9.6-9.9,9.6s-9.9-4.3-9.9-9.6v-80.7c0-5.3,4.4-9.6,9.9-9.6s9.9,4.3,9.9,9.6V564.9z
			 M578.4,539.9c-21.1,0-38.3-17.2-38.3-38.3c0-21.1,17.2-38.3,38.3-38.3c21.1,0,38.3,17.2,38.3,38.3
			C616.7,522.8,599.5,539.9,578.4,539.9z M615.4,258.4v131.1L431,341.9c-1.6-0.4-3.3,0.6-3.7,2.2s0.6,3.3,2.2,3.7L604.3,393h-56.8
			c-0.5-5.8-5.3-10.4-11.2-10.4h-264c-5.9,0-10.7,4.6-11.2,10.4h-48.9L394,347.8c1.6-0.4,2.7-2.1,2.2-3.7c-0.4-1.6-2.1-2.7-3.7-2.2
			l-185.7,46.2V258.4H615.4z"/>
		<path fill="#FDFEFF" d="M400.6,564.9c0,5.3,4.4,9.6,9.9,9.6s9.9-4.3,9.9-9.6v-80.7c0-5.3-4.4-9.6-9.9-9.6s-9.9,4.3-9.9,9.6"/>
		<path fill="#333F4F" d="M761.1,656H58.6v54.3H104c-0.6,1.6-0.9,3.2-0.9,4.9v84c0,8.1,6.9,14.8,15.4,14.8h88.9
			c8.5,0,15.4-6.7,15.4-14.8v-70.4h-24c-5.2,0-9.4-4.2-9.4-9.3s4.2-9.3,9.4-9.3h426.8c5.2,0,9.4,4.2,9.4,9.3s-4.2,9.3-9.4,9.3h-28.9
			v70.4c0,8.1,6.9,14.8,15.4,14.8h88.9c8.5,0,15.4-6.7,15.4-14.8v-84c0-1.7-0.4-3.3-0.9-4.9H761V656H761.1z"/>
	</g>
	<line fill="none" stroke="#FFFFFF" stroke-width="0.25" stroke-miterlimit="10" x1="206.8" y1="-37.9" x2="615.4" y2="-37.9"/>
</g>
</svg>
