<?xml version="1.0" encoding="utf-8"?>
<!-- Generator: Adobe Illustrator 18.0.0, SVG Export Plug-In . SVG Version: 6.00 Build 0)  -->
<!DOCTYPE svg PUBLIC "-//W3C//DTD SVG 1.1//EN" "http://www.w3.org/Graphics/SVG/1.1/DTD/svg11.dtd">
<svg version="1.1" id="Layer_1" xmlns="http://www.w3.org/2000/svg" xmlns:xlink="http://www.w3.org/1999/xlink" x="0px" y="0px"
	 viewBox="0 0 612 792" enable-background="new 0 0 612 792" xml:space="preserve">
<g id="Layer_3">
	<g>
		<rect x="222.3" y="583.3" fill="none" width="166.3" height="10.2"/>
		<path fill="none" d="M125.3,419.4c-8.8-12.8-32.2-28.2-32.2-28.2c-10.8,0-19.5,7.1-19.5,15.8v11.4c0,8.8,8.7,15.8,19.5,15.8h30.4
			C126.9,434.4,129.4,425.4,125.3,419.4z"/>
		<rect x="222.3" y="541.5" fill="none" width="166.3" height="10.2"/>
		<path fill="none" d="M162.7,499.6h-47c-8.4,0-15.2,6.8-15.2,15.2v21.6c0,8.4,6.8,15.2,15.2,15.2h47c8.4,0,15.2-6.8,15.2-15.2
			v-21.6C177.9,506.4,171.1,499.6,162.7,499.6z"/>
		<path fill="none" d="M516.7,391.2c0,0-23.4,15.4-32.2,28.2c-4.1,6-1.6,15,1.8,15h30.4c10.8,0,19.5-7.1,19.5-15.8v-11.4
			C536.2,398.3,527.4,391.2,516.7,391.2z"/>
		<path fill="none" d="M425.5,316.8H182.4c-17.1,3.8-40,85.1-14.6,85.1h286.9C463.1,401.8,445.8,316.8,425.5,316.8z"/>
		<path fill="none" d="M494,499.6h-47c-8.4,0-15.2,6.8-15.2,15.2v21.6c0,8.4,6.8,15.2,15.2,15.2h47c8.4,0,15.2-6.8,15.2-15.2v-21.6
			C509.3,506.4,502.4,499.6,494,499.6z"/>
		<path fill="#333F4F" d="M576.5,66.7H34.5c-8.4,0-15.2,6.8-15.2,15.2v490c0,8.4,6.8,15.2,15.2,15.2h22.9v-22.8
			c0-3.5,2.8-6.3,6.3-6.3c3.5,0,6.3,2.8,6.3,6.3v50.8h16.5v12.7H58.6c-8.4,0-15.2,6.8-15.2,15.2v3.8c0,8.4,6.8,15.2,15.2,15.2h27.9
			V703c0,14.6,6.8,26.4,15.2,26.4h90.9v-54h-3.5c-3.6,0-6.5-2.9-6.5-6.5s2.9-6.5,6.5-6.5h3.5H421h2.5c3.6,0,6.5,2.9,6.5,6.5
			s-2.9,6.5-6.5,6.5H421v54h93.3c8.4,0,15.2-11.8,15.2-26.4v-40.9h22.9c8.4,0,15.2-6.8,15.2-15.2V643c0-8.4-6.8-15.2-15.2-15.2
			h-22.9v-12.7h14v-27.9h0.4v-22.8c0-3.5,2.8-6.3,6.3-6.3s6.3,2.8,6.3,6.3v22.8h19.9c8.4,0,15.2-6.8,15.2-15.2v-490
			C591.8,73.5,585,66.7,576.5,66.7z M93.1,434.4c-10.8,0-19.5-7.1-19.5-15.8v-11.4c0-8.8,8.7-15.8,19.5-15.8
			c0,0,23.4,15.4,32.2,28.2c4.1,6,1.6,15-1.8,15L93.1,434.4L93.1,434.4z M177.9,536.4c0,8.4-6.8,15.2-15.2,15.2h-47
			c-8.4,0-15.2-6.8-15.2-15.2v-21.6c0-8.4,6.8-15.2,15.2-15.2h47c8.4,0,15.2,6.8,15.2,15.2V536.4z M388.7,593.5H222.3v-10.2h166.3
			L388.7,593.5L388.7,593.5z M388.7,551.6H222.3v-10.2h166.3L388.7,551.6L388.7,551.6z M167.8,401.8c-25.4,0-2.5-81.2,14.6-85.1
			h243.1c20.3,0,37.6,85.1,29.2,85.1H167.8z M509.3,536.4c0,8.4-6.8,15.2-15.2,15.2h-47c-8.4,0-15.2-6.8-15.2-15.2v-21.6
			c0-8.4,6.8-15.2,15.2-15.2h47c8.4,0,15.2,6.8,15.2,15.2L509.3,536.4L509.3,536.4z M536.2,418.5c0,8.8-8.7,15.8-19.5,15.8h-30.4
			c-3.4,0-5.9-9-1.8-15c8.8-12.8,32.2-28.2,32.2-28.2c10.8,0,19.5,7.1,19.5,15.8V418.5z"/>
	</g>
</g>
</svg>
