<?xml version="1.0" encoding="utf-8"?>
<!-- Generator: Adobe Illustrator 18.0.0, SVG Export Plug-In . SVG Version: 6.00 Build 0)  -->
<!DOCTYPE svg PUBLIC "-//W3C//DTD SVG 1.1//EN" "http://www.w3.org/Graphics/SVG/1.1/DTD/svg11.dtd">
<svg version="1.1" id="Layer_1" xmlns="http://www.w3.org/2000/svg" xmlns:xlink="http://www.w3.org/1999/xlink" x="0px" y="0px"
	 viewBox="171.1 42.8 451 514.6" enable-background="new 171.1 42.8 451 514.6" xml:space="preserve">
<g id="Layer_3">
	<g>
		<rect x="336.6" y="441.9" fill="none" width="126" height="7.7"/>
		<path fill="none" d="M263.1,317.7c-6.7-9.7-24.4-21.4-24.4-21.4c-8.2,0-14.8,5.4-14.8,12v8.6c0,6.7,6.6,12,14.8,12h23
			C264.3,329.1,266.2,322.3,263.1,317.7z"/>
		<rect x="336.6" y="410.2" fill="none" width="126" height="7.7"/>
		<path fill="none" d="M291.4,378.5h-35.6c-6.4,0-11.5,5.2-11.5,11.5v16.4c0,6.4,5.2,11.5,11.5,11.5h35.6c6.4,0,11.5-5.2,11.5-11.5
			V390C303,383.6,297.8,378.5,291.4,378.5z"/>
		<path fill="none" d="M559.6,296.4c0,0-17.7,11.7-24.4,21.4c-3.1,4.5-1.2,11.4,1.4,11.4h23c8.2,0,14.8-5.4,14.8-12v-8.6
			C574.4,301.7,567.7,296.4,559.6,296.4z"/>
		<path fill="none" d="M490.5,240H306.4c-13,2.9-30.3,64.5-11.1,64.5h217.3C519,304.4,505.9,240,490.5,240z"/>
		<path fill="none" d="M542.4,378.5h-35.6c-6.4,0-11.5,5.2-11.5,11.5v16.4c0,6.4,5.2,11.5,11.5,11.5h35.6c6.4,0,11.5-5.2,11.5-11.5
			V390C554,383.6,548.8,378.5,542.4,378.5z"/>
		<path fill="#333F4F" d="M604.9,50.5H194.3c-6.4,0-11.5,5.2-11.5,11.5v371.2c0,6.4,5.2,11.5,11.5,11.5h17.3v-17.3
			c0-2.7,2.1-4.8,4.8-4.8s4.8,2.1,4.8,4.8V466h12.5v9.6h-21.1c-6.4,0-11.5,5.2-11.5,11.5v2.9c0,6.4,5.2,11.5,11.5,11.5h21.1v31.1
			c0,11.1,5.2,20,11.5,20h68.9v-40.9h-2.7c-2.7,0-4.9-2.2-4.9-4.9c0-2.7,2.2-4.9,4.9-4.9h2.7h173h1.9c2.7,0,4.9,2.2,4.9,4.9
			c0,2.7-2.2,4.9-4.9,4.9h-1.9v40.9h70.7c6.4,0,11.5-8.9,11.5-20v-31h17.3c6.4,0,11.5-5.2,11.5-11.5v-3c0-6.4-5.2-11.5-11.5-11.5
			h-17.3V466h10.6v-21.1h0.3v-17.3c0-2.7,2.1-4.8,4.8-4.8c2.7,0,4.8,2.1,4.8,4.8v17.3h15.1c6.4,0,11.5-5.2,11.5-11.5V62.1
			C616.5,55.7,611.4,50.5,604.9,50.5z M238.7,329.1c-8.2,0-14.8-5.4-14.8-12v-8.6c0-6.7,6.6-12,14.8-12c0,0,17.7,11.7,24.4,21.4
			c3.1,4.5,1.2,11.4-1.4,11.4L238.7,329.1L238.7,329.1z M303,406.4c0,6.4-5.2,11.5-11.5,11.5h-35.6c-6.4,0-11.5-5.2-11.5-11.5V390
			c0-6.4,5.2-11.5,11.5-11.5h35.6c6.4,0,11.5,5.2,11.5,11.5V406.4z M462.7,449.6H336.6v-7.7h126L462.7,449.6L462.7,449.6z
			 M462.7,417.9H336.6v-7.7h126L462.7,417.9L462.7,417.9z M295.3,304.4c-19.2,0-1.9-61.5,11.1-64.5h184.2
			c15.4,0,28.5,64.5,22.1,64.5H295.3z M554,406.4c0,6.4-5.2,11.5-11.5,11.5h-35.6c-6.4,0-11.5-5.2-11.5-11.5V390
			c0-6.4,5.2-11.5,11.5-11.5h35.6c6.4,0,11.5,5.2,11.5,11.5V406.4L554,406.4z M574.4,317c0,6.7-6.6,12-14.8,12h-23
			c-2.6,0-4.5-6.8-1.4-11.4c6.7-9.7,24.4-21.4,24.4-21.4c8.2,0,14.8,5.4,14.8,12V317z"/>
	</g>
</g>
</svg>
